<svg xmlns="http://www.w3.org/2000/svg" width="30" height="28" viewBox="0 0 30 28">
  <path id="path" d="M43.3,284.766a15.4,15.4,0,0,1,21.488,0,14.047,14.047,0,0,1,4.388,10.688A14.7,14.7,0,0,1,61.76,308.4l-1.513-2.559a12.168,12.168,0,0,0,4.388-4.366,12.021,12.021,0,0,0,1.665-6.021,11.857,11.857,0,0,0-12.106-11.892,12.288,12.288,0,0,0-8.625,3.462,11.22,11.22,0,0,0-3.48,8.43,11.61,11.61,0,0,0,1.665,6.021,12.167,12.167,0,0,0,4.388,4.366L46.628,308.4a15.608,15.608,0,0,1-5.448-5.419,14.357,14.357,0,0,1-1.967-7.527A13.48,13.48,0,0,1,43.3,284.766Zm19.823,10.688a9.16,9.16,0,0,1-1.211,4.516,9.977,9.977,0,0,1-3.329,3.312l-1.513-2.559a5.77,5.77,0,0,0,3.026-5.269,5.682,5.682,0,0,0-1.816-4.215,5.872,5.872,0,0,0-8.474,0,5.682,5.682,0,0,0-1.816,4.215,5.935,5.935,0,0,0,3.026,5.269L49.5,303.282a9.976,9.976,0,0,1-3.329-3.312,9.16,9.16,0,0,1-1.211-4.516,8.18,8.18,0,0,1,2.724-6.323,9.367,9.367,0,0,1,6.356-2.71,8.492,8.492,0,0,1,6.356,2.71A8.992,8.992,0,0,1,63.122,295.454Zm-11.2-2.108a2.936,2.936,0,0,1,4.237,0,2.9,2.9,0,0,1,0,4.215,2.936,2.936,0,0,1-4.237,0,2.965,2.965,0,0,1-.908-2.108A2.124,2.124,0,0,1,51.924,293.346Z" transform="translate(-39.175 -280.4)" fill="#002055"/>
</svg>
